<?xml version="1.0" encoding="utf-8"?>
<!-- Generator: Adobe Illustrator 19.2.1, SVG Export Plug-In . SVG Version: 6.00 Build 0)  -->
<svg version="1.1" id="Layer_1" xmlns="http://www.w3.org/2000/svg" xmlns:xlink="http://www.w3.org/1999/xlink" x="0px" y="0px"
	 viewBox="0 0 240.8 96.7" style="enable-background:new 0 0 240.8 96.7;" xml:space="preserve">
<style type="text/css">
	.st0{fill:#FFFFFF;}
</style>
<path class="st0" d="M237.8,89.5L210.1,2.1h-15.3h-6.9h-15.3l-27.7,87.4h26.5l0,0l0,0l32.7-26.8l7.1,26.8H237.8z M178.8,61.9
	l12.6-47l12.6,47H178.8z"/>
<path class="st0" d="M55.3,44.4c8.3-1.8,13-9.2,13-20c0-11-8.3-22.3-25.5-22.3H0l0,0l0,0v87.3h3.7h42.5h1.9
	c17.1,0,23.8-11,23.8-23.7C71.9,54.8,64.6,45.9,55.3,44.4z M20.6,21.1h17.1c4.6,0,7.7,3,7.7,7.2c0,4.3-3.1,7.3-7.7,7.3H20.6V21.1z
	 M20.6,70.5V54.8h19.7c5.5,0,8.6,3.5,8.6,7.8c0,4.7-3.3,7.8-8.6,7.8L20.6,70.5L20.6,70.5z"/>
<path class="st0" d="M99.4,25.6c0-4.6,5.1-6.5,11.6-6.7c8.6-0.2,18,2.7,27.1,8.8l8.3-19.1C136.7,2.4,124.3,0,111.7,0
	C89.5,0,76.6,13,76.5,27.5c-0.1,37.1,45.7,23.3,45.7,37.6c0,4.1-3.7,7.1-11.4,7.1c-11.4,0-19.8-3.7-26.5-8.9l-8.8,19.2
	c8.8,6,20.6,9.3,34.6,9.3c23.2,0,34.8-12,34.8-29.4C144.8,27.6,99.4,38.5,99.4,25.6z"/>
</svg>
